<?xml version="1.0" standalone="no"?>
<!DOCTYPE svg PUBLIC "-//W3C//DTD SVG 20010904//EN"
 "http://www.w3.org/TR/2001/REC-SVG-20010904/DTD/svg10.dtd">
<svg version="1.0" xmlns="http://www.w3.org/2000/svg"
 width="500.000000pt" height="500.000000pt" viewBox="0 0 500.000000 500.000000"
 preserveAspectRatio="xMidYMid meet">
<metadata>
Created by potrace 1.14, written by Peter Selinger 2001-2017
</metadata>
<g transform="translate(0.000000,500.000000) scale(0.100000,-0.100000)"
fill="#000000" stroke="none">
<path d="M748 4038 c-33 -24 -28 -56 32 -218 16 -41 42 -115 60 -165 17 -49
37 -106 45 -125 14 -37 14 -37 161 -445 93 -261 165 -461 273 -765 29 -80 60
-167 71 -195 10 -27 30 -81 43 -120 14 -38 46 -126 70 -195 25 -69 69 -190 97
-270 29 -80 56 -154 60 -165 5 -11 19 -49 31 -85 12 -36 28 -79 35 -97 8 -17
14 -36 14 -42 0 -6 7 -25 15 -43 8 -18 49 -130 91 -248 42 -118 84 -226 92
-239 9 -12 34 -34 56 -48 l40 -26 487 1 c458 0 489 1 512 19 17 12 38 54 67
138 24 66 47 126 53 132 5 7 7 13 3 13 -3 0 -1 12 5 28 6 15 80 218 164 452
84 234 158 439 165 455 7 17 14 37 15 45 1 8 18 58 38 110 19 52 59 160 87
240 29 80 56 154 60 165 4 11 22 58 38 105 17 47 53 148 81 226 28 77 51 146
51 152 0 7 4 12 8 12 4 0 8 8 9 18 1 11 15 54 31 98 44 117 154 420 267 739
25 72 54 153 65 180 10 28 21 59 25 70 14 37 12 56 -8 82 -20 25 -22 25 -123
19 -56 -3 -115 -8 -130 -11 -16 -2 -56 -7 -89 -10 -33 -2 -78 -7 -100 -9 -22
-2 -71 -7 -110 -11 -38 -3 -113 -11 -165 -16 -52 -6 -115 -12 -140 -14 -25 -2
-74 -7 -110 -12 -36 -4 -69 -8 -75 -8 -5 0 -14 -3 -20 -8 -5 -4 -22 -17 -38
-28 -36 -27 -48 -51 -102 -210 -25 -74 -48 -141 -52 -149 -3 -8 -7 -19 -9 -25
-1 -5 -32 -95 -69 -200 -78 -222 -202 -579 -309 -890 -42 -121 -80 -229 -85
-240 -5 -11 -14 -33 -19 -50 l-10 -30 -12 30 c-6 17 -13 37 -15 45 -2 8 -27
80 -56 160 -28 79 -52 149 -54 155 -1 5 -6 21 -12 35 -6 14 -20 54 -33 90 -39
113 -224 643 -359 1030 -34 96 -73 192 -86 212 -32 48 -84 74 -165 82 -36 4
-81 9 -100 11 -19 2 -66 7 -105 10 -38 3 -90 8 -115 11 -87 9 -136 13 -255 24
-66 6 -133 13 -150 16 -94 14 -221 15 -237 2z"/>
</g>
</svg>
