<svg version="1.0" xmlns="http://www.w3.org/2000/svg" viewBox="0 0 500 500"><path d="M74.8 96.2c-3.3 2.4-2.8 5.6 3.2 21.8 1.6 4.1 4.2 11.5 6 16.5 1.7 4.9 3.7 10.6 4.5 12.5 1.4 3.7 1.4 3.7 16.1 44.5 9.3 26.1 16.5 46.1 27.3 76.5 2.9 8 6 16.7 7.1 19.5 1 2.7 3 8.1 4.3 12 1.4 3.8 4.6 12.6 7 19.5 2.5 6.9 6.9 19 9.7 27 2.9 8 5.6 15.4 6 16.5.5 1.1 1.9 4.9 3.1 8.5 1.2 3.6 2.8 7.9 3.5 9.7.8 1.7 1.4 3.6 1.4 4.2 0 .6.7 2.5 1.5 4.3.8 1.8 4.9 13 9.1 24.8 4.2 11.8 8.4 22.6 9.2 23.9.9 1.2 3.4 3.4 5.6 4.8l4 2.6 48.7-.1c45.8 0 48.9-.1 51.2-1.9 1.7-1.2 3.8-5.4 6.7-13.8 2.4-6.6 4.7-12.6 5.3-13.2.5-.7.7-1.3.3-1.3-.3 0-.1-1.2.5-2.8.6-1.5 8-21.8 16.4-45.2 8.4-23.4 15.8-43.9 16.5-45.5.7-1.7 1.4-3.7 1.5-4.5.1-.8 1.8-5.8 3.8-11 1.9-5.2 5.9-16 8.7-24 2.9-8 5.6-15.4 6-16.5.4-1.1 2.2-5.8 3.8-10.5 1.7-4.7 5.3-14.8 8.1-22.6 2.8-7.7 5.1-14.6 5.1-15.2 0-.7.4-1.2.8-1.2s.8-.8.9-1.8c.1-1.1 1.5-5.4 3.1-9.8 4.4-11.7 15.4-42 26.7-73.9 2.5-7.2 5.4-15.3 6.5-18 1-2.8 2.1-5.9 2.5-7 1.4-3.7 1.2-5.6-.8-8.2-2-2.5-2.2-2.5-12.3-1.9-5.6.3-11.5.8-13 1.1-1.6.2-5.6.7-8.9 1-3.3.2-7.8.7-10 .9-2.2.2-7.1.7-11 1.1-3.8.3-11.3 1.1-16.5 1.6-5.2.6-11.5 1.2-14 1.4-2.5.2-7.4.7-11 1.2-3.6.4-6.9.8-7.5.8-.5 0-1.4.3-2 .8-.5.4-2.2 1.7-3.8 2.8-3.6 2.7-4.8 5.1-10.2 21-2.5 7.4-4.8 14.1-5.2 14.9-.3.8-.7 1.9-.9 2.5-.1.5-3.2 9.5-6.9 20-7.8 22.2-20.2 57.9-30.9 89-4.2 12.1-8 22.9-8.5 24-.5 1.1-1.4 3.3-1.9 5l-1 3-1.2-3c-.6-1.7-1.3-3.7-1.5-4.5-.2-.8-2.7-8-5.6-16-2.8-7.9-5.2-14.9-5.4-15.5-.1-.5-.6-2.1-1.2-3.5s-2-5.4-3.3-9c-3.9-11.3-22.4-64.3-35.9-103-3.4-9.6-7.3-19.2-8.6-21.2-3.2-4.8-8.4-7.4-16.5-8.2-3.6-.4-8.1-.9-10-1.1-1.9-.2-6.6-.7-10.5-1-3.8-.3-9-.8-11.5-1.1-8.7-.9-13.6-1.3-25.5-2.4-6.6-.6-13.3-1.3-15-1.6-9.4-1.4-22.1-1.5-23.7-.2z"/></svg>